<?xml version="1.0" encoding="utf-8"?>
<!DOCTYPE svg PUBLIC "-//W3C//DTD SVG 1.1//EN" "http://www.w3.org/Graphics/SVG/1.1/DTD/svg11.dtd">
<svg version="1.1" id="Layer_1" xmlns="http://www.w3.org/2000/svg" xmlns:xlink="http://www.w3.org/1999/xlink" x="0px" y="0px"
	 width="418.465px" height="93.335px" viewBox="0 0 418.465 93.335" enable-background="new 0 0 418.465 93.335"
	 xml:space="preserve">
<g>
	<g>
		<path fill-rule="evenodd" clip-rule="evenodd" fill="#C40022" d="M197.375,0.269c-0.154,0-0.284,0.11-0.313,0.26l-2.996,15.646
			c-0.019,0.096,0.008,0.192,0.068,0.266c0.061,0.073,0.152,0.114,0.246,0.114h9.326c0.15,0,0.285-0.107,0.314-0.257l0.49-2.466
			c0.017-0.094-0.006-0.191-0.068-0.267c-0.06-0.073-0.15-0.117-0.246-0.117c0,0-5.12,0-5.801,0
			c0.115-0.591,0.636-3.333,0.716-3.751c0.479,0,5.225,0,5.225,0c0.155,0,0.287-0.111,0.314-0.264l0.445-2.466
			c0.006-0.018,0.009-0.037,0.009-0.056c0-0.074-0.027-0.147-0.077-0.205c-0.061-0.074-0.151-0.115-0.245-0.115c0,0-4.415,0-5.082,0
			c0.109-0.572,0.535-2.811,0.611-3.215c0.484,0,5.854,0,5.854,0c0.154,0,0.29-0.112,0.314-0.266l0.423-2.466
			c0.003-0.017,0.006-0.036,0.006-0.054c0-0.076-0.027-0.148-0.074-0.208c-0.062-0.071-0.151-0.114-0.247-0.114H197.375z"/>
		<path fill-rule="evenodd" clip-rule="evenodd" fill="#C40022" d="M117.74,3.376h-0.724l-0.793,4.134h0.734
			c1.033,0,1.947-0.33,2.509-0.901c0.409-0.415,0.612-0.941,0.612-1.564V4.989C120.058,3.874,119.335,3.376,117.74,3.376z
			 M114.084,0.269h2.644c2.508,0,7.172,0,7.259,4.372v0.133c0,1.546-0.52,2.891-1.506,3.894c-1.232,1.258-3.121,1.949-5.322,1.949
			h-1.55l-1.091,5.679c-0.028,0.152-0.162,0.26-0.314,0.26h-3.137c-0.095,0-0.188-0.041-0.247-0.117
			c-0.062-0.072-0.086-0.17-0.069-0.264l3.02-15.646C113.798,0.378,113.931,0.269,114.084,0.269z"/>
		<path fill-rule="evenodd" clip-rule="evenodd" fill="#C40022" d="M129.673,10.176c0.032,1.713,0.853,3.543,3.05,3.543
			c1.115,0,2.117-0.445,2.981-1.321c1.523-1.555,2.172-4.018,2.136-5.772c-0.031-1.701-0.862-3.52-3.094-3.52
			c-1.139,0-2.145,0.441-2.998,1.307C130.445,5.739,129.632,8.003,129.673,10.176z M128.17,3.026C129.886,1.02,132.113,0,134.792,0
			c4.343,0,6.884,2.533,6.969,6.95c0.051,2.652-0.862,5.188-2.571,7.145c-1.574,1.786-3.935,2.731-6.822,2.731
			c-3.877,0-6.534-2.739-6.611-6.813C125.708,7.426,126.564,4.947,128.17,3.026z"/>
		<path fill-rule="evenodd" clip-rule="evenodd" fill="#C40022" d="M162.876,0.269c-0.126,0-0.24,0.076-0.29,0.191
			c0,0-3.908,8.829-4.772,10.784c-0.052-2.103-0.266-10.663-0.266-10.663c-0.002-0.173-0.145-0.312-0.319-0.312h-4.214
			c-0.128,0-0.246,0.079-0.295,0.197c0,0-3.673,8.863-4.476,10.799c-0.122-2.065-0.626-10.693-0.626-10.693
			c-0.007-0.17-0.148-0.302-0.317-0.302h-3.139c-0.089,0-0.174,0.039-0.236,0.103c-0.061,0.066-0.089,0.155-0.083,0.245
			l1.286,15.644c0.013,0.167,0.151,0.294,0.318,0.294h3.878c0.129,0,0.245-0.077,0.295-0.195c0,0,3.892-9.232,4.747-11.256
			c0.068,2.164,0.352,11.141,0.352,11.141c0.006,0.174,0.149,0.311,0.322,0.311h3.922c0.125,0,0.238-0.071,0.29-0.187l7.167-15.644
			c0.045-0.101,0.037-0.216-0.024-0.307c-0.058-0.093-0.159-0.148-0.269-0.148H162.876z"/>
		<path fill-rule="evenodd" clip-rule="evenodd" fill="#C40022" d="M169.385,0.269c-0.15,0-0.284,0.11-0.312,0.26l-2.997,15.646
			c-0.016,0.096,0.009,0.192,0.069,0.266c0.059,0.073,0.15,0.114,0.245,0.114h9.325c0.154,0,0.285-0.107,0.317-0.257l0.488-2.466
			c0.019-0.094-0.004-0.191-0.066-0.267c-0.061-0.073-0.152-0.117-0.248-0.117c0,0-5.121,0-5.799,0
			c0.113-0.591,0.632-3.333,0.712-3.751c0.481,0,5.226,0,5.226,0c0.156,0,0.289-0.111,0.315-0.264l0.449-2.466
			c0-0.018,0.004-0.037,0.004-0.056c0-0.074-0.026-0.147-0.074-0.205c-0.062-0.074-0.152-0.115-0.246-0.115c0,0-4.416,0-5.083,0
			c0.108-0.572,0.533-2.811,0.611-3.215c0.486,0,5.854,0,5.854,0c0.154,0,0.29-0.112,0.318-0.266l0.422-2.466
			c0.001-0.017,0.004-0.036,0.004-0.054c0-0.076-0.025-0.148-0.074-0.208c-0.06-0.071-0.152-0.114-0.246-0.114H169.385z"/>
		<path fill-rule="evenodd" clip-rule="evenodd" fill="#C40022" d="M186.692,3.376h-1.037l-0.67,3.573h0.756
			c0.748,0,2.113-0.113,2.845-0.86c0.342-0.346,0.506-0.785,0.506-1.337V4.698C189.07,3.464,188.17,3.376,186.692,3.376z
			 M186.477,0.269c2.871,0,6.444,0,6.522,4.014v0.104c0,1.186-0.385,2.211-1.12,2.973c-0.62,0.64-1.477,1.079-2.478,1.283
			c0.333,0.287,0.582,0.696,0.712,1.213l1.625,6.298c0.007,0.026,0.01,0.055,0.01,0.081c0,0.069-0.023,0.139-0.069,0.195
			c-0.061,0.077-0.154,0.124-0.253,0.124h-3.295c-0.148,0-0.279-0.103-0.311-0.247l-0.833-3.675l-0.153-0.727
			c-0.258-1.271-0.376-1.851-1.563-1.851h-0.921l-1.192,6.239c-0.031,0.152-0.162,0.26-0.316,0.26h-3.138
			c-0.096,0-0.186-0.041-0.248-0.114c-0.061-0.074-0.084-0.17-0.066-0.264l2.973-15.646c0.028-0.151,0.162-0.261,0.313-0.261
			H186.477z"/>
		<path fill-rule="evenodd" clip-rule="evenodd" fill="#C40022" d="M214.253,3.376h-0.811l-1.915,10.072h1.07
			c1.996,0,3.526-0.53,4.557-1.576c1.05-1.073,1.583-2.686,1.583-4.8l-0.002-0.246C218.693,4.667,217.019,3.376,214.253,3.376z
			 M210.507,0.269h4.709c2.729,0,7.323,0.91,7.441,6.994c0.03,1.544-0.243,4.463-2.402,6.661c-1.713,1.745-4.226,2.631-7.475,2.631
			h-5.27c-0.093,0-0.182-0.041-0.244-0.114c-0.063-0.074-0.088-0.17-0.07-0.266l2.995-15.646
			C210.224,0.379,210.354,0.269,210.507,0.269z"/>
		<path fill-rule="evenodd" clip-rule="evenodd" fill="#C40022" d="M234.348,9.562h-0.747l-0.732,3.886h0.688
			c1.206,0,2.524-0.093,3.203-0.783c0.341-0.347,0.507-0.827,0.507-1.463V11.13C237.243,10.002,236.426,9.562,234.348,9.562z
			 M235.639,3.376h-0.835l-0.629,3.215h0.845c0.82,0,1.925-0.128,2.517-0.731c0.293-0.3,0.436-0.684,0.436-1.179V4.631
			C237.949,3.577,237.135,3.376,235.639,3.376z M231.982,0.269h4.642c3.205,0,5.07,1.479,5.12,4.058V4.4
			c0,1.616-1.053,3.053-2.567,3.682c1.165,0.542,1.843,1.694,1.875,3.307v0.118c0,1.28-0.405,2.341-1.202,3.152
			c-1.232,1.258-3.381,1.896-6.378,1.896h-4.462c-0.097,0-0.188-0.041-0.25-0.114c-0.058-0.074-0.083-0.17-0.064-0.264l2.971-15.646
			C231.698,0.379,231.828,0.269,231.982,0.269z"/>
		<path fill-rule="evenodd" clip-rule="evenodd" fill="#C40022" d="M255.047,0.269c-0.099,0-0.195,0.048-0.253,0.126
			c0,0-4.006,5.301-4.612,6.104c-0.344-0.916-2.253-6.021-2.253-6.021c-0.044-0.125-0.165-0.209-0.3-0.209h-3.316
			c-0.106,0-0.209,0.055-0.268,0.143c-0.034,0.054-0.054,0.115-0.054,0.179c0,0.041,0.009,0.083,0.027,0.124
			c0,0,3.736,8.903,3.811,9.078c-0.035,0.186-1.223,6.382-1.223,6.382c-0.005,0.021-0.007,0.042-0.007,0.062
			c0,0.074,0.026,0.146,0.071,0.202c0.062,0.076,0.153,0.117,0.249,0.117h3.141c0.151,0,0.283-0.107,0.311-0.26
			c0,0,1.199-6.245,1.23-6.398c0.097-0.123,7.347-9.105,7.347-9.105c0.05-0.058,0.071-0.129,0.071-0.2
			c0-0.047-0.01-0.094-0.03-0.139c-0.052-0.111-0.166-0.183-0.288-0.183H255.047z"/>
	</g>
	<g>
		<g>
			<path fill-rule="evenodd" clip-rule="evenodd" fill="#C40022" d="M44.114,25.655c-1.665,3.511-1.002,6.394,1.481,6.438
				c2.484,0.044,5.851-2.764,7.514-6.272c1.667-3.513,1.002-6.395-1.481-6.44C49.145,19.339,45.779,22.147,44.114,25.655z
				 M64.356,12.981c0.021,0.008,0.035,0.03,0.035,0.054c0,0.008-0.003,0.015-0.003,0.019c-1.485,4.208-3.948,8.994-6.389,12.626
				c-5.142,7.635-12.524,12.452-16.483,10.753c-3.958-1.696-3.005-9.264,2.142-16.903c1.158-1.714,2.427-3.286,3.743-4.673
				c0.01-0.013,0.017-0.026,0.017-0.042c0-0.031-0.027-0.058-0.059-0.058c0,0-0.006,0-0.007,0.001
				c-1.618,0.224-3.256,0.542-4.91,0.961c-0.011,0.001-0.022,0.01-0.032,0.02C25.038,37.046,17.644,64.717,18.661,89.404l0,0
				c0,0.033-0.024,0.058-0.057,0.058c-0.008,0-0.016,0-0.023-0.003C8.34,85.332,0.856,75.438,0.075,62.91l-0.009-0.145
				c-1.293-22.289,16.475-45.12,39.69-50.997C48.752,9.491,57.251,10.091,64.356,12.981z"/>
			<path d="M57.789,73.096c-1.687,1.172-3.448,2.254-5.268,3.23c-0.008,0.003-0.017,0.006-0.025,0.006
				c-0.032,0-0.059-0.025-0.059-0.055c-0.339-5.353-1.493-10.537-3.485-14.85c-5.315-11.516-14.604-12.402-20.742-1.978
				c-3.754,6.38-5.465,15.521-5.001,24.297c0,0.024,0.016,0.047,0.038,0.052c6.512,2.041,14.014,2.265,22.017,0.245
				c23.182-5.907,40.915-28.715,39.625-50.98C83.753,13.505,68.325,0.865,48.876,2.039c-0.015,0-0.027,0.005-0.037,0.017
				c-1.892,1.914-3.662,3.845-5.322,5.795c-0.008,0.01-0.014,0.023-0.014,0.036c0,0.033,0.026,0.059,0.058,0.059
				c0,0,0.005,0,0.008-0.001c11.395-1.442,20.532,0.874,26.492,5.623c0.014,0.011,0.022,0.027,0.022,0.045
				c0,0.011-0.003,0.023-0.008,0.031c-20.538,28.956-17.996,45.45-12.266,59.382c0.002,0.007,0.005,0.014,0.005,0.021
				C57.814,73.066,57.802,73.084,57.789,73.096z"/>
		</g>
		<g>
			<path d="M249.366,39.971c4.849,0,8.431,1.055,10.159,2.032c0.021,0.012,0.033,0.037,0.027,0.062l-1.673,8.779
				c-0.003,0.018-0.017,0.033-0.033,0.041c-0.017,0.009-0.036,0.009-0.053-0.001c-1.961-1.069-5.352-2.208-8.992-2.208
				c-3.058,0-5.047,1.279-5.047,3.424c0,1.537,1.522,2.915,4.746,4.486c4.202,2.098,8.947,5.207,8.947,10.826
				c0,3.668-1.224,6.735-3.634,9.126c-3.205,3.181-8.404,4.917-14.656,4.868c-4.809-0.08-9.672-1.327-12.106-3.09
				c-0.019-0.012-0.027-0.035-0.023-0.059l1.676-8.833c0.006-0.019,0.019-0.034,0.037-0.042c0.017-0.008,0.037-0.005,0.054,0.005
				c2.604,1.634,7.733,3.395,11.498,3.395c2.918,0,4.884-1.348,4.884-3.507c0-1.957-1.382-3.324-4.911-5.051
				c-5.583-2.792-8.374-6.33-8.374-10.503C231.892,45.517,238.878,39.971,249.366,39.971z"/>
			<path d="M120.739,39.89c0.698,0,1.555,0.074,2.182,0.188c0.015,0.003,0.027,0.011,0.037,0.025
				c0.009,0.015,0.013,0.029,0.009,0.044l-2.269,11.423c-0.002,0.016-0.01,0.029-0.024,0.037c-0.013,0.01-0.029,0.012-0.044,0.01
				c-0.412-0.086-1.067-0.187-1.837-0.187c-8.004,0-11.125,7.823-12.339,14.292l-2.841,15.211c-0.007,0.027-0.029,0.047-0.058,0.047
				H91.887c-0.017,0-0.034-0.008-0.044-0.021c-0.012-0.014-0.017-0.032-0.014-0.05l7.623-40.079c0.005-0.028,0.03-0.048,0.058-0.048
				l10.262-0.001c0.02,0,0.035,0.007,0.047,0.022c0.007,0.01,0.014,0.023,0.014,0.036l-1.309,6.889
				c-0.009,0.046,0,0.107,0.058,0.137c0.062,0.03,0.126,0.011,0.167-0.052C111.812,42.725,116.049,39.89,120.739,39.89z"/>
			<path d="M136.228,51.286c-3.168,3.168-5.543,9.118-5.54,13.853c0.001,4.158,1.542,6.748,4.221,6.748
				c4.292,0,7.985-4.485,9.255-11.053c0.287-1.468,0.575-2.961,0.782-4.287c0.208-1.328,0.338-2.498,0.3-3.315
				c-0.136-2.806-1.596-4.317-4.215-4.317C139.43,48.914,137.769,49.742,136.228,51.286z M140.601,80.575
				c-0.012-0.015-0.016-0.032-0.012-0.048l0.982-4.968c0.013-0.078-0.028-0.138-0.097-0.151c-0.055-0.01-0.104,0.021-0.129,0.064
				c-2.168,3.674-6.411,6.016-11.185,6.016c-7.833,0-11.373-6.953-11.378-13.912c-0.004-7.906,3.102-15.734,8.304-20.941
				c4.356-4.36,9.982-6.664,16.27-6.664c4.784,0.019,8.32,1.404,10.538,4.091c3.283,3.977,3.013,9.947,2.194,14.288l-4.242,22.199
				c-0.006,0.027-0.027,0.049-0.057,0.049h-11.141C140.629,80.598,140.612,80.589,140.601,80.575z"/>
			<path d="M276.936,72.541c6.191,0,10.738-8.789,10.738-16.549c0-1.873-0.442-6.424-4.76-6.424c-4.391,0-8.097,5.002-9.533,12.59
				C272.889,64.752,271.513,72.541,276.936,72.541z M287.073,39.971c7.802,0,12.858,5.912,12.858,15.128
				c0,9.666-4.639,19.576-13.004,24.035c-7.62,4.062-14.428,2.279-16.566-0.902c-0.003-0.006-0.013-0.006-0.013,0.002l-2.848,15.052
				c-0.004,0.027-0.029,0.05-0.059,0.05h-11.67c-0.017,0-0.033-0.008-0.044-0.022c-0.011-0.014-0.016-0.031-0.011-0.048
				l10.017-52.686c0.006-0.027,0.03-0.048,0.058-0.048l10.263,0.007c0.017,0,0.032,0.008,0.046,0.021
				c0.011,0.015,0.014,0.033,0.011,0.048l-1.02,5.364c-0.011,0.059-0.005,0.131,0.056,0.155c0.055,0.022,0.118,0.003,0.162-0.056
				l0.049-0.064C278.361,42.148,282.609,39.971,287.073,39.971z"/>
			<path d="M199.623,26.841h11.589c0.017,0,0.033,0.008,0.044,0.021c0.012,0.016,0.015,0.033,0.012,0.049l-6.045,31.799
				c-0.003,0.021,0.002,0.04,0.021,0.048c0.018,0.01,0.041,0.004,0.054-0.011l15.559-17.944c0.011-0.014,0.027-0.021,0.044-0.021
				h12.709c0.022,0,0.044,0.014,0.056,0.036c0.002,0.008,0.005,0.017,0.005,0.025c0,0.012-0.005,0.027-0.017,0.037L217.51,59.066
				l9.849,21.37c0.004,0.009,0.004,0.015,0.004,0.023c0,0.013-0.003,0.023-0.007,0.031c-0.013,0.019-0.03,0.028-0.05,0.028h-12.547
				c-0.022,0-0.044-0.014-0.055-0.035l-9.525-21.125c-0.007-0.018-0.023-0.027-0.043-0.025c-0.021,0.001-0.033,0.015-0.04,0.033
				l-4.011,21.105c-0.005,0.027-0.027,0.047-0.057,0.047h-11.589c-0.019,0-0.034-0.009-0.045-0.021
				c-0.013-0.015-0.015-0.033-0.013-0.048l10.184-53.561C199.569,26.86,199.594,26.841,199.623,26.841z"/>
			<path d="M397.762,51.939c0-2.051-1.699-3.344-4.236-3.344c-5.033,0-8.262,4.071-9.202,7.914l-0.033,0.14
				c-0.004,0.003-0.004,0.005,0,0.009c0.003,0.002,0.004,0.004,0.008,0.004h0.144c6.821,0.043,10.668-0.657,12.354-2.326
				C397.446,53.689,397.762,52.903,397.762,51.939z M394.983,39.972c8.299,0,13.833,4.821,13.833,11.967
				c0,3.306-1.075,6.024-3.194,8.09c-3.886,3.787-11.185,5.52-22.349,5.258l-0.125-0.002h-0.004c0,0.002,0,0.002,0,0.005
				l0.004,0.125c0.038,1.149,0.435,2.772,1.185,3.823c1.527,1.928,4.227,2.979,7.571,2.979c4.892,0,9.129-1.188,13.739-3.844
				c0.021-0.013,0.045-0.012,0.062,0.002c0.02,0.014,0.029,0.036,0.025,0.059l-1.859,9.767c-0.002,0.018-0.014,0.032-0.028,0.041
				c-5.612,2.857-12.199,3.167-14.774,3.167c-10.967,0-17.236-6.099-17.236-16.749c0-6.14,2.255-12.292,6.185-16.88
				C382.328,42.743,388.354,39.972,394.983,39.972z"/>
			<path d="M408.867,76.451c-0.219,2.43,1.555,4.373,3.979,4.373c2.473,0,4.68-2.022,4.901-4.498
				c0.219-2.434-1.555-4.377-3.979-4.377C411.298,71.949,409.093,73.971,408.867,76.451z M408.171,76.389
				c0.257-2.839,2.761-5.14,5.598-5.14s4.929,2.301,4.676,5.14c-0.257,2.835-2.762,5.135-5.599,5.135S407.915,79.224,408.171,76.389
				z M412.184,73.356c0.003-0.011,0.012-0.021,0.024-0.021h1.286l0.015,0.001c0.33,0.006,0.549,0.007,0.713,0.02
				c0.227,0.017,0.396,0.052,0.57,0.112c0.652,0.217,1.026,0.735,1.026,1.395c0,0.114-0.013,0.232-0.037,0.354
				c-0.149,0.811-0.661,1.469-1.604,1.729l0.826,2.436c0,0.004,0.001,0.005,0.001,0.009c0,0.005-0.001,0.009-0.006,0.013
				c-0.002,0.008-0.011,0.011-0.019,0.011h-0.837c-0.013,0-0.021-0.007-0.023-0.017l-0.788-2.318l-0.517,0.012h-0.02h-0.567
				l-0.433,2.305c-0.001,0.01-0.014,0.019-0.024,0.019h-0.694c-0.007,0-0.015-0.003-0.021-0.01
				c-0.003-0.005-0.007-0.011-0.007-0.019l0.439-2.324l0.005-0.031l0.345-1.822L412.184,73.356z M413.356,74.08h-0.563l-0.211,1.137
				l-0.215,1.127h0.557h0.063c0.285-0.005,0.474-0.008,0.625-0.018c0.166-0.012,0.29-0.035,0.426-0.076
				c0.533-0.154,0.909-0.545,1-1.042c0.096-0.493-0.132-0.88-0.604-1.032c-0.121-0.045-0.23-0.064-0.396-0.078
				c-0.147-0.01-0.333-0.01-0.618-0.018H413.356z"/>
			<path d="M318.165,51.286c-3.166,3.168-5.543,9.118-5.54,13.853c0.001,4.158,1.542,6.748,4.224,6.748
				c4.289,0,7.983-4.485,9.254-11.053c0.285-1.468,0.574-2.961,0.781-4.287c0.21-1.328,0.338-2.498,0.301-3.315
				c-0.137-2.806-1.598-4.317-4.216-4.317C321.367,48.914,319.706,49.742,318.165,51.286z M322.539,80.575
				c-0.013-0.015-0.016-0.032-0.013-0.048l0.982-4.968c0.013-0.078-0.029-0.138-0.098-0.151c-0.055-0.01-0.104,0.021-0.129,0.064
				c-2.168,3.674-6.411,6.016-11.185,6.016c-7.833,0-11.375-6.953-11.378-13.912c-0.005-7.906,3.101-15.734,8.303-20.941
				c4.357-4.36,9.981-6.664,16.27-6.664c4.783,0.019,8.322,1.404,10.539,4.091c3.281,3.977,3.013,9.947,2.193,14.288l-4.241,22.199
				c-0.005,0.027-0.028,0.049-0.059,0.049h-11.139C322.567,80.598,322.55,80.589,322.539,80.575z"/>
			<path d="M365.868,40.053c2.978,0,6.015,0.518,8.125,1.381c0.025,0.011,0.039,0.039,0.035,0.066l-1.802,9.457
				c-0.005,0.018-0.016,0.033-0.032,0.041c-0.02,0.007-0.038,0.008-0.055-0.003c-1.818-1.017-3.925-1.509-6.435-1.509
				c-8.391,0-13.39,7.315-13.39,14.363c0,5.982,3.995,8.125,7.719,8.125c3.33,0,6.16-0.729,9.755-2.498
				c0.021-0.011,0.044-0.008,0.061,0.004c0.021,0.014,0.027,0.037,0.023,0.059l-1.841,9.715c-0.003,0.016-0.016,0.033-0.031,0.041
				c-2.728,1.318-6.947,2.111-11.288,2.111c-10.184,0-16.748-6.379-16.748-16.261C339.965,50.842,351.096,40.053,365.868,40.053z"/>
			<path d="M183.931,40.053c2.977,0,6.014,0.518,8.124,1.381c0.026,0.011,0.042,0.039,0.036,0.066l-1.802,9.457
				c-0.004,0.018-0.015,0.033-0.034,0.041c-0.017,0.007-0.036,0.008-0.053-0.003c-1.819-1.017-3.925-1.509-6.435-1.509
				c-8.391,0-13.391,7.315-13.391,14.363c0,5.982,3.996,8.125,7.721,8.125c3.331,0,6.157-0.729,9.754-2.498
				c0.021-0.011,0.044-0.008,0.062,0.004c0.019,0.014,0.026,0.037,0.022,0.059l-1.839,9.715c-0.005,0.016-0.018,0.033-0.034,0.041
				c-2.726,1.318-6.946,2.111-11.287,2.111c-10.185,0-16.75-6.379-16.75-16.261C158.025,50.842,169.158,40.053,183.931,40.053z"/>
		</g>
	</g>
</g>
</svg>
